<svg width="24" height="24" version="1.1" viewBox="0 0 24 24" xmlns="http://www.w3.org/2000/svg"><path d="m 8.099875,1.8 c 0,-0.99375 0.80625,-1.8 1.8,-1.8 h 12.3 c 0.99375,0 1.8,0.80625 1.8,1.8 v 20.4 c 0,0.99375 -0.80625,1.8 -1.8,1.8 h -18.6 c -0.15821,0 -0.31055,-0.0633 -0.42305,-0.17461 l -10e-4,-10e-4 -2.99875,-2.97999 C 0.063405,20.7319 1.25e-4,20.57837 1.25e-4,20.419 v -8.11875 c 0,-0.99375 0.80625,-1.8 1.8,-1.8 h 0.9 v -3.6 c 0,-0.99375 0.80625,-1.8 1.8,-1.8 h 3.6 z m -3.6,4.5 c -0.33165,0 -0.6,0.26835 -0.6,0.6 v 3.6 h 6 c 0.99375,0 1.8,0.80625 1.8,1.8 v 10.5 h 3.6 V 6.9 c 0,-0.33165 -0.26835,-0.6 -0.6,-0.6 z m 12,16.5 V 6.9 c 0,-0.99375 -0.80625,-1.8 -1.8,-1.8 h -5.4 V 1.8 c 0,-0.33165 0.26835,-0.6 0.6,-0.6 h 12.3 c 0.33165,0 0.6,0.26835 0.6,0.6 v 20.4 c 0,0.33165 -0.26835,0.6 -0.6,0.6 z m -6,0 V 12.3 c 0,-0.33165 -0.26835,-0.6 -0.6,-0.6 h -8.1 c -0.33165,0 -0.6,0.26835 -0.6,0.6 v 7.5 h 1.2 c 0.99375,0 1.8,0.80625 1.8,1.8 v 1.2 z m -7.5,-0.84845 V 21.6 c 0,-0.33165 -0.26835,-0.6 -0.6,-0.6 h -0.35155 z" fill-rule="evenodd" style="stroke-width:0.025" fill="currentColor" /></svg>